<svg width="195" height="62" viewBox="0 0 195 62" fill="none" xmlns="http://www.w3.org/2000/svg">
<path d="M79.364 26.0567C83.3243 26.0567 86.7247 26.9374 89.565 28.6976C92.405 30.4177 94.5855 32.8575 96.1055 36.0175C97.6656 39.1777 98.4455 42.8983 98.4456 47.1785H69.9912C70.2378 47.9294 70.561 48.63 70.9629 49.2793C72.003 50.9594 73.5237 52.2394 75.5238 53.1194C77.5239 53.9994 79.9441 54.4398 82.7842 54.4398C85.3444 54.4398 87.9248 54.0797 90.525 53.3597C93.1252 52.5996 95.465 51.5388 97.5451 50.1788V56.9C95.3051 58.4999 92.685 59.7596 89.6851 60.6796C86.725 61.5596 83.5846 62 80.2644 62C76.2242 62 72.6035 61.2602 69.4032 59.7801C66.243 58.26 63.7428 56.1395 61.9026 53.4192C60.1026 50.6992 59.2023 47.5391 59.2022 43.939C59.2022 40.3788 60.0624 37.2581 61.7825 34.5779C63.5427 31.8977 65.943 29.8173 68.9833 28.3372C72.0235 26.8171 75.4837 26.0567 79.364 26.0567ZM150.401 44.4781C150.401 47.5184 151.121 49.8395 152.561 51.4396C154.001 52.9996 156.042 53.7796 158.682 53.7796C160.642 53.7796 162.303 53.3794 163.663 52.5793C165.063 51.7393 166.142 50.5385 166.902 48.9785C167.662 47.4184 168.043 45.5981 168.043 43.5181V26.9572H178.063V49.6387L180.164 61.0995H170.143L168.911 53.5023C168.767 53.7798 168.619 54.0534 168.463 54.3197C166.983 56.7998 165.102 58.6993 162.822 60.0194C160.582 61.3394 158.081 62 155.321 62C152.161 61.9999 149.461 61.36 147.221 60.0799C145.021 58.7599 143.321 56.8995 142.121 54.4994C140.961 52.0992 140.381 49.2585 140.381 45.9782V26.9572H150.401V44.4781ZM48.6711 0C51.5769 0 53.8461 2.42645 53.8463 5.31097V53.6322C53.9844 57.0281 51.6576 59.4738 49.0227 60.3915C46.3831 61.3106 43.0537 60.8212 41.1539 57.9743C41.1387 57.9533 41.0979 57.8979 41.0641 57.8493L41.0631 57.8473C35.9198 50.4365 30.7764 43.0252 25.6332 35.6141C25.5653 35.813 25.4787 36.009 25.3705 36.1991V36.2001L12.1175 59.4744C11.5342 60.4979 10.4545 61.1492 9.26275 61.1493H3.30037C0.680396 61.1489 -0.781335 58.2801 0.432956 56.1089L13.4535 32.8317C14.0333 31.7963 15.1203 31.1348 16.3209 31.1343H22.5236C18.1578 24.8436 13.7926 18.5522 9.42683 12.2617C9.03654 11.6994 8.64549 11.1367 8.25486 10.5741C6.61522 8.21252 7.12017 4.91534 9.42878 3.19459C11.7689 1.4507 15.0255 2.01888 16.6852 4.4105L17.8562 6.09814C25.0092 16.4045 32.1621 26.7119 39.3149 37.0185C40.571 38.8284 43.4958 38.0576 43.4959 35.5673V5.31097C43.4962 2.42659 45.7658 0.000309316 48.6711 0ZM118.265 37.712L127.261 26.9572H138.302L124.425 43.6079L139.202 61.0995H127.801L117.999 49.4795L108.3 61.0995H97.1388L111.714 43.6519L98.0989 26.9572H109.319L118.265 37.712ZM194.619 61.0995H184.598V14.8967H194.619V61.0995ZM79.4236 33.4382C77.3836 33.4382 75.6033 33.858 74.0833 34.698C72.6033 35.4981 71.4435 36.6382 70.6035 38.1182C70.1965 38.8508 69.8932 39.6507 69.6933 40.5178H88.7524C88.4944 39.5198 88.1257 38.6199 87.6449 37.8184C86.8449 36.4184 85.7448 35.338 84.3448 34.5779C82.9447 33.8179 81.3037 33.4382 79.4236 33.4382Z" fill="url(#paint0_linear_62_148)"/>
<defs>
<linearGradient id="paint0_linear_62_148" x1="128.228" y1="8.09549" x2="128.228" y2="68.1012" gradientUnits="userSpaceOnUse">
<stop stop-color="#8B7FFF"/>
<stop offset="0.5" stop-color="#6B5FFF"/>
<stop offset="1" stop-color="#5F57F9"/>
</linearGradient>
</defs>
</svg>
