<svg width="200" height="70" viewBox="0 0 200 70" fill="none" xmlns="http://www.w3.org/2000/svg">
<g filter="url(#filter0_d_26_84)">
<path d="M53.2849 0C56.2002 4.32199e-05 58.5084 2.40861 58.5086 5.31063V53.6287C58.6486 57.0364 56.284 59.477 53.6296 60.3896C50.971 61.3036 47.613 60.8206 45.691 57.9774C45.6757 57.9566 45.6345 57.9012 45.6002 57.8524L45.5992 57.8505C40.3805 50.4276 35.1613 43.0047 29.9427 35.5816C29.8719 35.7929 29.7793 36.0021 29.6624 36.2047L16.2384 59.4775C15.6466 60.5027 14.5576 61.1454 13.3663 61.1455H7.32714C4.71549 61.1452 3.19688 58.2971 4.44233 56.0985L17.631 32.8237L17.632 32.8228C18.2203 31.7857 19.3157 31.1328 20.5158 31.1323H26.8157C22.3949 24.8441 17.9737 18.5558 13.5528 12.2678C13.1574 11.7054 12.761 11.1429 12.3653 10.5802V10.5793C10.7001 8.21078 11.2185 4.90707 13.5528 3.1895C15.9074 1.45716 19.1866 2.01506 20.8654 4.40339C21.2606 4.96562 21.6559 5.52783 22.051 6.08994L43.7877 37.0094C45.0919 38.864 48.0619 38.0145 48.0621 35.565V5.31063C48.0624 2.40864 50.3699 0.000165988 53.2849 0ZM80.7521 22.1429C84.7121 22.1429 88.1124 23.0226 90.9524 24.7826C93.7925 26.5026 95.9726 28.943 97.4926 32.103C99.0526 35.2631 99.8325 38.9833 99.8325 43.2634H71.3799C71.6264 44.0139 71.9498 44.714 72.3516 45.363C73.3916 47.043 74.9122 48.3239 76.9122 49.2039C78.9121 50.0838 81.3322 50.5232 84.1721 50.5232C86.7321 50.5232 89.3124 50.1631 91.9124 49.4431C94.5123 48.6832 96.8521 47.6233 98.9321 46.2634V52.9832C96.6921 54.5832 94.0724 55.8436 91.0726 56.7636C88.1126 57.6435 84.9724 58.0839 81.6525 58.0839C77.6124 58.0839 73.992 57.3432 70.792 55.8632C67.6321 54.3432 65.1318 52.2236 63.2919 49.5037C61.4918 46.7836 60.5916 43.6231 60.5916 40.0231C60.5917 36.4633 61.4519 33.3435 63.1717 30.6636C64.9318 27.9835 67.332 25.9032 70.372 24.4232C73.4121 22.9032 76.8721 22.1429 80.7521 22.1429ZM151.784 40.5631C151.784 43.603 152.505 45.9232 153.945 47.5232C155.385 49.0832 157.425 49.863 160.065 49.8631C162.025 49.8631 163.685 49.4638 165.045 48.6638C166.445 47.8238 167.525 46.6232 168.285 45.0632C169.045 43.5032 169.425 41.6832 169.425 39.6031V23.0433H179.445V45.7234L181.546 57.1835H171.525L170.293 49.5867C170.149 49.864 170.002 50.137 169.845 50.4031C168.365 52.8832 166.485 54.7834 164.205 56.1034C161.965 57.4233 159.464 58.0839 156.704 58.0839C153.545 58.0838 150.845 57.4439 148.605 56.1639C146.405 54.844 144.705 52.9836 143.505 50.5838C142.345 48.1837 141.765 45.3432 141.765 42.0631V23.0433H151.784V40.5631ZM119.65 33.7974L128.646 23.0433H139.687L125.81 39.693L140.586 57.1835H129.186L119.385 45.5642L109.686 57.1835H98.5258L113.099 39.7369L99.4858 23.0433H110.706L119.65 33.7974ZM196 57.1835H185.979V10.9826H196V57.1835ZM80.8117 29.5229C78.7718 29.523 76.9916 29.9428 75.4717 30.7827C73.9917 31.5827 72.8322 32.7236 71.9922 34.2036C71.5852 34.9362 71.2819 35.736 71.082 36.6031H90.1399C89.8819 35.6049 89.5134 34.7044 89.0325 33.9029C88.2326 32.5031 87.1324 31.4235 85.7326 30.6636C84.3326 29.9035 82.6917 29.5229 80.8117 29.5229Z" fill="url(#paint0_linear_26_84)"/>
</g>
<defs>
<filter id="filter0_d_26_84" x="0" y="0" width="200" height="69.1456" filterUnits="userSpaceOnUse" color-interpolation-filters="sRGB">
<feFlood flood-opacity="0" result="BackgroundImageFix"/>
<feColorMatrix in="SourceAlpha" type="matrix" values="0 0 0 0 0 0 0 0 0 0 0 0 0 0 0 0 0 0 127 0" result="hardAlpha"/>
<feOffset dy="4"/>
<feGaussianBlur stdDeviation="2"/>
<feComposite in2="hardAlpha" operator="out"/>
<feColorMatrix type="matrix" values="0 0 0 0 0 0 0 0 0 0 0 0 0 0 0 0 0 0 0.25 0"/>
<feBlend mode="normal" in2="BackgroundImageFix" result="effect1_dropShadow_26_84"/>
<feBlend mode="normal" in="SourceGraphic" in2="effect1_dropShadow_26_84" result="shape"/>
</filter>
<linearGradient id="paint0_linear_26_84" x1="138.023" y1="1.0945" x2="138.023" y2="61.0954" gradientUnits="userSpaceOnUse">
<stop stop-color="#3A31E7"/>
<stop offset="0.5" stop-color="#2F25A9"/>
<stop offset="1" stop-color="#141414"/>
</linearGradient>
</defs>
</svg>
